<?xml version="1.0"?>
<svg version="1.1" xmlns="http://www.w3.org/2000/svg" width="164" height="103" style=""><path fill="#d4c933" d="M16.13818359375,66.96484375q0.1083984375-2.9267578125,0.189697265625-5.998046875t0.153564453125-6.061279296875t0.1083984375-5.808349609375t0.0361328125-5.25732421875q0.0361328125-0.48779296875,0.84912109375-0.77685546875t1.942138671875-0.424560546875t2.384765625-0.171630859375t2.231201171875-0.0361328125q0.216796875,0,0.9033203125-0.01806640625l0.34326171875,0q0.52392578125,0,1.10205078125,0.0361328125q0.7587890625,0.05419921875,1.327880859375,0.23486328125t0.569091796875,0.52392578125q0,0.2529296875-0.19873046875,0.406494140625t-0.460693359375,0.225830078125t-0.5419921875,0.09033203125t-0.388427734375,0.01806640625q-1.6982421875,0-3.3603515625-0.05419921875q-0.45166015625-0.01806640625-0.92138671875-0.01806640625q-1.228515625,0-2.4931640625,0.1083984375q0.072265625,0.216796875,0.117431640625,1.309814453125t0.045166015625,2.466064453125t-0.01806640625,2.682861328125t0,2.014404296875l0,4.697265625q0.56005859375-0.0361328125,1.10205078125-0.0361328125l1.083984375,0l0.72265625-0.0361328125q0.361328125-0.01806640625,0.7587890625-0.01806640625q0.41552734375,0,0.84912109375,0.01806640625q0.8671875,0.0361328125,1.580810546875,0.207763671875t0.713623046875,0.605224609375q0,0.3251953125-0.27099609375,0.478759765625t-0.605224609375,0.225830078125t-0.63232421875,0.072265625l-0.334228515625,0q-1.02978515625,0-2.140869140625-0.072265625t-2.068603515625-0.072265625q-0.1806640625,0.072265625-0.388427734375,0.05419921875t-0.370361328125-0.01806640625q0,2.7099609375-0.05419921875,5.392822265625t-0.12646484375,5.338623046875q0,0.52392578125-0.659423828125,0.6865234375t-1.255615234375,0.16259765625q-0.66845703125,0-1.056884765625-0.16259765625t-0.551025390625-0.532958984375t-0.19873046875-0.984619140625q-0.01806640625-0.34326171875-0.0361328125-0.7587890625q0-0.34326171875,0.01806640625-0.74072265625z M30.874409179688,58.20263671875q0-0.74072265625,0.261962890625-1.24658203125t1.111083984375-0.505859375q0.3251953125,0,0.81298828125,0.099365234375t0.56005859375,0.496826171875q0.1806640625,1.06591796875,0.19873046875,2.3125t0.12646484375,2.3486328125q0.41552734375-0.81298828125,1.06591796875-1.75244140625t1.4814453125-1.734375t1.806640625-1.31884765625t1.9873046875-0.52392578125q0.072265625,0,0.27099609375,0.05419921875t0.370361328125,0.153564453125t0.207763671875,0.225830078125t-0.19873046875,0.23486328125q-0.072265625,0.216796875-0.30712890625,0.261962890625t-0.41552734375,0.045166015625q-0.1083984375,0-0.34326171875-0.09033203125q-1.3369140625,0.70458984375-2.2763671875,1.9150390625t-1.53564453125,2.682861328125t-0.8671875,3.107421875t-0.27099609375,3.188720703125q0,0.77685546875-0.352294921875,0.939453125t-1.129150390625,0.16259765625q-0.41552734375,0-0.876220703125-0.09033203125t-0.641357421875-0.578125q-0.3251953125-1.02978515625-0.532958984375-2.36669921875t-0.316162109375-2.755126953125t-0.153564453125-2.791259765625t-0.045166015625-2.47509765625z M43.713662109375,62.82763671875q0-1.662109375,0.388427734375-3.260986328125t0.659423828125-3.188720703125q0.072265625-0.41552734375,0.569091796875-0.514892578125t0.840087890625-0.099365234375q0.59619140625,0,0.95751953125,0.1806640625q0.14453125,0.072265625,0.27099609375,0.16259765625t0.12646484375,0.23486328125q0,1.5537109375-0.370361328125,3.03515625t-0.370361328125,3.1435546875q0,0.56005859375,0.081298828125,1.056884765625t0.153564453125,0.984619140625l0.1083984375,0.52392578125q0,0.14453125,0.01806640625,0.2529296875t0.05419921875,0.2529296875q0,0.3251953125-0.460693359375,0.442626953125t-0.803955078125,0.117431640625q-0.52392578125,0-0.966552734375-0.207763671875t-0.695556640625-0.713623046875l-0.2529296875-0.52392578125q-0.216796875-0.41552734375-0.216796875-0.930419921875t-0.09033203125-0.948486328125z M44.869912109375,51.95166015625l0-0.34326171875q0-0.84912109375,0.424560546875-1.517578125t1.273681640625-0.66845703125q0.1083984375,0,0.207763671875,0.01806640625t0.207763671875,0.01806640625q0.216796875,0.0361328125,0.569091796875,0.171630859375t0.352294921875,0.424560546875l0,0.0361328125q-0.072265625,0.14453125-0.09033203125,0.298095703125t-0.09033203125,0.261962890625l0.0361328125-0.0361328125q-0.216796875,0.56005859375-0.352294921875,0.9033203125t-0.298095703125,0.551025390625t-0.406494140625,0.298095703125t-0.695556640625,0.09033203125q-0.072265625,0-0.2529296875-0.01806640625t-0.388427734375-0.072265625t-0.352294921875-0.14453125t-0.14453125-0.27099609375z M51.602719726562,63.04443359375q0-1.4091796875,0.298095703125-2.556396484375t0.948486328125-1.942138671875t1.707275390625-1.237548828125t2.574462890625-0.442626953125q0.84912109375,0,1.734375,0.225830078125t1.517578125,0.840087890625q0-0.361328125,0.072265625-1.490478515625t0.1806640625-2.628662109375t0.225830078125-3.1435546875t0.207763671875-3.05322265625t0.16259765625-2.36669921875t0.1083984375-1.083984375q0.1806640625-0.52392578125,0.66845703125-0.623291015625t0.92138671875-0.099365234375q1.13818359375,0,1.400146484375,0.361328125t0.261962890625,1.4453125q0,3.95654296875-0.352294921875,7.876953125t-0.352294921875,7.876953125q0,2.54736328125,0.099365234375,5.121826171875t0.713623046875,5.067626953125l0.19873046875,0.1806640625l0.1083984375,0.3251953125l-0.27099609375,0.41552734375q-0.6865234375,0.43359375-1.58984375,0.43359375l-0.072265625,0q-0.92138671875,0-1.6982421875-0.43359375q-0.2890625-0.1806640625-0.478759765625-1.074951171875t-0.298095703125-1.96923828125t-0.16259765625-2.068603515625t-0.09033203125-1.4091796875q-0.63232421875,1.4453125-1.725341796875,2.484130859375t-2.755126953125,1.038818359375q-1.30078125,0-2.1318359375-0.56005859375t-1.291748046875-1.42724609375t-0.650390625-1.942138671875t-0.189697265625-2.140869140625z M53.788754882812,63.15283203125q0,0.41552734375,0.099365234375,1.228515625t0.316162109375,1.6259765625t0.605224609375,1.4453125t1.020751953125,0.63232421875q0.84912109375-0.41552734375,1.53564453125-1.382080078125t1.183349609375-2.1318359375t0.77685546875-2.33056640625t0.280029296875-2.014404296875q0-1.06591796875-0.77685546875-1.7705078125t-1.86083984375-0.70458984375q-0.3251953125,0-0.659423828125,0.12646484375t-0.623291015625,0.2890625q-0.66845703125,0.63232421875-1.038818359375,1.147216796875t-0.56005859375,1.06591796875t-0.243896484375,1.219482421875t-0.05419921875,1.5537109375z M68.70564453125,63.26123046875q0-1.228515625,0.334228515625-2.36669921875t1.002685546875-2.032470703125t1.671142578125-1.42724609375t2.321533203125-0.532958984375q0.81298828125,0,1.797607421875,0.243896484375t1.851806640625,0.72265625t1.4453125,1.219482421875t0.578125,1.6982421875q0,0.45166015625-0.153564453125,0.6865234375t-0.623291015625,0.23486328125l-0.19873046875-0.0361328125q0.52392578125,1.4091796875,0.9033203125,2.890625t0.74072265625,2.962890625q0.14453125,0.2890625,0.216796875,0.514892578125t0.072265625,0.442626953125q0,0.2890625-0.16259765625,0.478759765625t-0.424560546875,0.280029296875t-0.5419921875,0.12646484375t-0.496826171875,0.0361328125q-0.77685546875,0-1.165283203125-0.27099609375t-0.56005859375-0.74072265625t-0.207763671875-1.056884765625t-0.14453125-1.183349609375q-0.216796875,0.70458984375-0.569091796875,1.373046875t-0.8310546875,1.201416015625t-1.129150390625,0.84912109375t-1.46337890625,0.316162109375q-1.1923828125,0-2.00537109375-0.6865234375t-1.309814453125-1.689208984375t-0.72265625-2.140869140625t-0.225830078125-2.11376953125z M71.27107421875,63.00830078125q0,0.66845703125,0.09033203125,1.4091796875t0.298095703125,1.46337890625t0.532958984375,1.364013671875t0.81298828125,1.129150390625q0.88525390625-0.95751953125,1.309814453125-2.33056640625t0.7587890625-2.646728515625t0.7587890625-2.18603515625t1.309814453125-0.912353515625q0.56005859375,0,0.939453125,0.19873046875q-0.1806640625-0.45166015625-0.59619140625-0.876220703125t-0.930419921875-0.77685546875t-1.06591796875-0.578125t-1.038818359375-0.225830078125q-0.14453125,0-0.334228515625,0.045166015625t-0.298095703125,0.009033203125q-0.74072265625,0.216796875-1.219482421875,0.749755859375t-0.77685546875,1.255615234375t-0.424560546875,1.4814453125t-0.12646484375,1.42724609375z M84.363256835938,59.232421875q0-0.52392578125,0.298095703125-0.6865234375t0.749755859375-0.16259765625q0.74072265625,0,1.129150390625,0.280029296875t0.388427734375,0.984619140625q0,0.84912109375,0.12646484375,2.122802734375t0.370361328125,2.47509765625t0.578125,2.068603515625t0.695556640625,0.8671875q0.66845703125,0,1.183349609375-1.02978515625t0.9033203125-2.529296875t0.66845703125-3.224853515625t0.388427734375-3.080322265625q0.072265625-0.74072265625,0.352294921875-1.074951171875t1.020751953125-0.334228515625q0.84912109375,0,1.237548828125,0.70458984375t0.496826171875,1.734375q0.09033203125,0.88525390625,0.09033203125,1.8427734375l0,0.30712890625l0,0.72265625q0,0.6865234375,0.01806640625,1.228515625l0.52392578125,11.07470703125l0.072265625,1.8427734375q0.0361328125,0.2529296875,0.05419921875,0.478759765625t0.01806640625,0.478759765625q0,1.02978515625-0.442626953125,1.327880859375t-1.436279296875,0.298095703125q-0.216796875,0-0.551025390625-0.0361328125t-0.650390625-0.14453125t-0.5419921875-0.298095703125t-0.225830078125-0.478759765625l0.072265625-0.1806640625q0.09033203125-1.083984375,0.09033203125-2.2763671875l0-0.37939453125q-0.01806640625-1.4091796875-0.09033203125-2.8544921875t-0.16259765625-2.890625t-0.09033203125-2.7822265625q-0.2529296875,0.56005859375-0.587158203125,1.15625t-0.77685546875,1.074951171875t-1.002685546875,0.794921875t-1.2646484375,0.316162109375q-1.02978515625,0-1.6982421875-0.5419921875t-1.038818359375-1.4091796875t-0.532958984375-1.942138671875t-0.216796875-2.14990234375t-0.072265625-2.050537109375t-0.14453125-1.64404296875z"/><path fill="#" d=""/></svg>
